<mxfile host="app.diagrams.net" modified="2023-03-27T10:03:26.411Z" agent="5.0 (Windows NT 10.0; Win64; x64) AppleWebKit/537.36 (KHTML, like Gecko) Chrome/111.0.0.0 Safari/537.36 Edg/111.0.1661.44" etag="Mlua1S8rTf1rN-tOcVsQ" version="21.0.10" type="github">
  <diagram name="Page-1" id="90a13364-a465-7bf4-72fc-28e22215d7a0">
    <mxGraphModel dx="1437" dy="781" grid="1" gridSize="10" guides="1" tooltips="1" connect="1" arrows="1" fold="1" page="1" pageScale="1.5" pageWidth="1169" pageHeight="826" background="none" math="0" shadow="1">
      <root>
        <mxCell id="0" style=";html=1;" />
        <mxCell id="1" style=";html=1;" parent="0" />
        <mxCell id="3a17f1ce550125da-1" value="ChatGPT Personal System" style="whiteSpace=wrap;html=1;shadow=1;fontSize=20;fillColor=#eeeeee;strokeColor=#36393d;strokeWidth=2;dashed=1;" parent="1" vertex="1">
          <mxGeometry x="723.5" y="344" width="297" height="60" as="geometry" />
        </mxCell>
        <mxCell id="3a17f1ce550125da-2" value="&lt;div&gt;ChatGPT Personal WebServer&lt;/div&gt;&lt;div&gt;(FastAPI、Python)&lt;/div&gt;" style="whiteSpace=wrap;html=1;shadow=1;fontSize=18;fillColor=#1ba1e2;strokeColor=#006EAF;fontColor=#ffffff;" parent="1" vertex="1">
          <mxGeometry x="787" y="454" width="170" height="280" as="geometry" />
        </mxCell>
        <mxCell id="3a17f1ce550125da-4" value="&amp;nbsp; &amp;nbsp; &amp;nbsp; &amp;nbsp; &amp;nbsp; &amp;nbsp; Web Page" style="whiteSpace=wrap;html=1;shadow=1;fontSize=18;fillColor=#f8cecc;strokeColor=#b85450;gradientColor=#ea6b66;" parent="1" vertex="1">
          <mxGeometry x="1037" y="450" width="213" height="80" as="geometry" />
        </mxCell>
        <mxCell id="3a17f1ce550125da-5" value="App" style="whiteSpace=wrap;html=1;shadow=1;fontSize=18;fillColor=#d5e8d4;strokeColor=#82b366;gradientColor=#97d077;" parent="1" vertex="1">
          <mxGeometry x="1037" y="550" width="213" height="80" as="geometry" />
        </mxCell>
        <mxCell id="3a17f1ce550125da-6" value="&amp;nbsp; &amp;nbsp; &amp;nbsp; &amp;nbsp; &amp;nbsp; &amp;nbsp;Other Server" style="whiteSpace=wrap;html=1;shadow=1;fontSize=18;fillColor=#f5f5f5;strokeColor=#666666;gradientColor=#b3b3b3;" parent="1" vertex="1">
          <mxGeometry x="1037" y="654" width="213" height="76" as="geometry" />
        </mxCell>
        <mxCell id="3a17f1ce550125da-8" value="Proxy Server" style="whiteSpace=wrap;html=1;shadow=1;fontSize=18;fillColor=#647687;strokeColor=#314354;fontColor=#ffffff;" parent="1" vertex="1">
          <mxGeometry x="560" y="450" width="120" height="150" as="geometry" />
        </mxCell>
        <mxCell id="3a17f1ce550125da-9" value="Virtual Private Network" style="whiteSpace=wrap;html=1;shadow=1;fontSize=18;fillColor=#dae8fc;strokeColor=#6c8ebf;" parent="1" vertex="1">
          <mxGeometry x="560" y="640" width="120" height="160" as="geometry" />
        </mxCell>
        <mxCell id="3a17f1ce550125da-10" value="&amp;nbsp; &amp;nbsp; &amp;nbsp; &amp;nbsp; &amp;nbsp; &amp;nbsp; &amp;nbsp; Robot Client" style="whiteSpace=wrap;html=1;shadow=1;fontSize=18;fillColor=#fff2cc;strokeColor=#d6b656;gradientColor=#ffd966;" parent="1" vertex="1">
          <mxGeometry x="776" y="774" width="200.5" height="120" as="geometry" />
        </mxCell>
        <mxCell id="3a17f1ce550125da-11" value="&amp;nbsp; &amp;nbsp; &amp;nbsp; &amp;nbsp; &amp;nbsp; &amp;nbsp;Robot User" style="whiteSpace=wrap;html=1;shadow=1;fontSize=18;fillColor=#d0cee2;strokeColor=#56517e;" parent="1" vertex="1">
          <mxGeometry x="1037" y="790" width="173" height="90" as="geometry" />
        </mxCell>
        <mxCell id="bVvk8zOgvU0S2B1iUloB-1" value="OpenAI Server" style="whiteSpace=wrap;html=1;shadow=1;fontSize=18;fillColor=#fa6800;strokeColor=#C73500;fontColor=#000000;" vertex="1" parent="1">
          <mxGeometry x="280" y="414" width="120" height="440" as="geometry" />
        </mxCell>
        <mxCell id="bVvk8zOgvU0S2B1iUloB-4" value="&lt;font style=&quot;font-size: 21px;&quot;&gt;Direct&lt;/font&gt;" style="text;html=1;strokeColor=none;fillColor=none;align=center;verticalAlign=middle;whiteSpace=wrap;rounded=0;" vertex="1" parent="1">
          <mxGeometry x="450" y="684" width="60" height="30" as="geometry" />
        </mxCell>
        <mxCell id="bVvk8zOgvU0S2B1iUloB-5" value="&lt;font style=&quot;font-size: 21px;&quot;&gt;Proxy&lt;/font&gt;" style="text;html=1;strokeColor=none;fillColor=none;align=center;verticalAlign=middle;whiteSpace=wrap;rounded=0;" vertex="1" parent="1">
          <mxGeometry x="710" y="480" width="60" height="30" as="geometry" />
        </mxCell>
        <mxCell id="bVvk8zOgvU0S2B1iUloB-6" value="" style="image;aspect=fixed;html=1;points=[];align=center;fontSize=12;image=img/lib/azure2/networking/Virtual_Networks.svg;" vertex="1" parent="1">
          <mxGeometry x="594.38" y="650" width="56.95" height="34" as="geometry" />
        </mxCell>
        <mxCell id="bVvk8zOgvU0S2B1iUloB-7" value="" style="image;aspect=fixed;html=1;points=[];align=center;fontSize=12;image=img/lib/azure2/other/Web_Jobs.svg;" vertex="1" parent="1">
          <mxGeometry x="851" y="492.5" width="51.44" height="53" as="geometry" />
        </mxCell>
        <mxCell id="bVvk8zOgvU0S2B1iUloB-8" value="" style="image;aspect=fixed;html=1;points=[];align=center;fontSize=12;image=img/lib/azure2/other/Peering_Service.svg;" vertex="1" parent="1">
          <mxGeometry x="594.38" y="454" width="52.23" height="53" as="geometry" />
        </mxCell>
        <mxCell id="bVvk8zOgvU0S2B1iUloB-9" value="" style="image;aspect=fixed;html=1;points=[];align=center;fontSize=12;image=img/lib/azure2/other/Cloud_Services_(extended_support).svg;" vertex="1" parent="1">
          <mxGeometry x="306" y="507" width="68" height="57.99999999999999" as="geometry" />
        </mxCell>
        <mxCell id="bVvk8zOgvU0S2B1iUloB-10" value="" style="image;aspect=fixed;html=1;points=[];align=center;fontSize=12;image=img/lib/azure2/other/Bare_Metal_Infrastructure.svg;" vertex="1" parent="1">
          <mxGeometry x="787" y="809" width="61.63" height="58" as="geometry" />
        </mxCell>
        <mxCell id="bVvk8zOgvU0S2B1iUloB-11" value="" style="image;aspect=fixed;html=1;points=[];align=center;fontSize=12;image=img/lib/azure2/other/Ceres.svg;imageBackground=#66FFFF;" vertex="1" parent="1">
          <mxGeometry x="1045.19" y="809" width="49.62" height="57" as="geometry" />
        </mxCell>
        <mxCell id="bVvk8zOgvU0S2B1iUloB-12" value="" style="image;aspect=fixed;html=1;points=[];align=center;fontSize=12;image=img/lib/azure2/other/Fiji.svg;" vertex="1" parent="1">
          <mxGeometry x="1045.19" y="660" width="52.41" height="66" as="geometry" />
        </mxCell>
        <mxCell id="bVvk8zOgvU0S2B1iUloB-13" value="" style="image;aspect=fixed;html=1;points=[];align=center;fontSize=12;image=img/lib/azure2/other/Image_Definition.svg;" vertex="1" parent="1">
          <mxGeometry x="1045.19" y="562" width="68" height="64" as="geometry" />
        </mxCell>
        <mxCell id="bVvk8zOgvU0S2B1iUloB-14" value="" style="image;aspect=fixed;html=1;points=[];align=center;fontSize=12;image=img/lib/azure2/other/Dashboard_Hub.svg;" vertex="1" parent="1">
          <mxGeometry x="1045.19" y="464" width="68" height="52" as="geometry" />
        </mxCell>
        <mxCell id="bVvk8zOgvU0S2B1iUloB-15" value="" style="edgeStyle=orthogonalEdgeStyle;fontSize=12;html=1;endArrow=blockThin;endFill=1;rounded=0;strokeWidth=2;endSize=4;startSize=4;dashed=0;strokeColor=#4284F3;exitX=1;exitY=0.25;exitDx=0;exitDy=0;entryX=0;entryY=0.5;entryDx=0;entryDy=0;" edge="1" parent="1" source="bVvk8zOgvU0S2B1iUloB-1" target="3a17f1ce550125da-8">
          <mxGeometry width="100" relative="1" as="geometry">
            <mxPoint x="430" y="550" as="sourcePoint" />
            <mxPoint x="530" y="550" as="targetPoint" />
          </mxGeometry>
        </mxCell>
        <mxCell id="bVvk8zOgvU0S2B1iUloB-16" value="" style="edgeStyle=orthogonalEdgeStyle;fontSize=12;html=1;endArrow=blockThin;endFill=1;rounded=0;strokeWidth=2;endSize=4;startSize=4;dashed=0;strokeColor=#4284F3;exitX=1;exitY=0.75;exitDx=0;exitDy=0;entryX=0;entryY=0.75;entryDx=0;entryDy=0;" edge="1" parent="1" source="bVvk8zOgvU0S2B1iUloB-1" target="3a17f1ce550125da-9">
          <mxGeometry width="100" relative="1" as="geometry">
            <mxPoint x="420" y="854" as="sourcePoint" />
            <mxPoint x="510" y="800" as="targetPoint" />
            <Array as="points">
              <mxPoint x="400" y="760" />
            </Array>
          </mxGeometry>
        </mxCell>
        <mxCell id="bVvk8zOgvU0S2B1iUloB-18" value="" style="edgeStyle=orthogonalEdgeStyle;fontSize=12;html=1;endArrow=blockThin;endFill=1;rounded=0;strokeWidth=2;endSize=4;startSize=4;dashed=0;strokeColor=#4284F3;exitX=1;exitY=0.5;exitDx=0;exitDy=0;entryX=0;entryY=0.75;entryDx=0;entryDy=0;" edge="1" parent="1" source="3a17f1ce550125da-9" target="3a17f1ce550125da-2">
          <mxGeometry width="100" relative="1" as="geometry">
            <mxPoint x="691" y="713" as="sourcePoint" />
            <mxPoint x="851" y="714" as="targetPoint" />
            <Array as="points">
              <mxPoint x="680" y="664" />
            </Array>
          </mxGeometry>
        </mxCell>
        <mxCell id="bVvk8zOgvU0S2B1iUloB-20" value="" style="edgeStyle=orthogonalEdgeStyle;fontSize=12;html=1;endArrow=blockThin;endFill=1;rounded=0;strokeWidth=2;endSize=4;startSize=4;dashed=0;strokeColor=#4284F3;exitX=1;exitY=0.75;exitDx=0;exitDy=0;entryX=0;entryY=0.25;entryDx=0;entryDy=0;" edge="1" parent="1" source="3a17f1ce550125da-8" target="3a17f1ce550125da-2">
          <mxGeometry width="100" relative="1" as="geometry">
            <mxPoint x="440" y="564" as="sourcePoint" />
            <mxPoint x="600" y="565" as="targetPoint" />
            <Array as="points">
              <mxPoint x="680" y="524" />
            </Array>
          </mxGeometry>
        </mxCell>
        <mxCell id="bVvk8zOgvU0S2B1iUloB-21" value="" style="edgeStyle=orthogonalEdgeStyle;fontSize=12;html=1;endArrow=blockThin;endFill=1;rounded=0;strokeWidth=2;endSize=4;startSize=4;strokeColor=#34A853;dashed=0;exitX=0.165;exitY=0.999;exitDx=0;exitDy=0;exitPerimeter=0;entryX=0.196;entryY=0.005;entryDx=0;entryDy=0;entryPerimeter=0;" edge="1" parent="1" source="3a17f1ce550125da-2" target="3a17f1ce550125da-10">
          <mxGeometry width="100" relative="1" as="geometry">
            <mxPoint x="651.33" y="867" as="sourcePoint" />
            <mxPoint x="815" y="770" as="targetPoint" />
          </mxGeometry>
        </mxCell>
        <mxCell id="bVvk8zOgvU0S2B1iUloB-22" value="" style="edgeStyle=orthogonalEdgeStyle;fontSize=12;html=1;endArrow=blockThin;endFill=1;rounded=0;strokeWidth=2;endSize=4;startSize=4;strokeColor=#34A853;dashed=0;exitX=0.165;exitY=0.999;exitDx=0;exitDy=0;exitPerimeter=0;entryX=0.196;entryY=0.005;entryDx=0;entryDy=0;entryPerimeter=0;" edge="1" parent="1">
          <mxGeometry width="100" relative="1" as="geometry">
            <mxPoint x="836" y="734" as="sourcePoint" />
            <mxPoint x="836" y="775" as="targetPoint" />
          </mxGeometry>
        </mxCell>
        <mxCell id="bVvk8zOgvU0S2B1iUloB-23" value="" style="edgeStyle=orthogonalEdgeStyle;fontSize=12;html=1;endArrow=blockThin;endFill=1;rounded=0;strokeWidth=2;endSize=4;startSize=4;strokeColor=#34A853;dashed=0;exitX=0.165;exitY=0.999;exitDx=0;exitDy=0;exitPerimeter=0;entryX=0.196;entryY=0.005;entryDx=0;entryDy=0;entryPerimeter=0;" edge="1" parent="1">
          <mxGeometry width="100" relative="1" as="geometry">
            <mxPoint x="857" y="734" as="sourcePoint" />
            <mxPoint x="857" y="775" as="targetPoint" />
          </mxGeometry>
        </mxCell>
        <mxCell id="bVvk8zOgvU0S2B1iUloB-24" value="" style="edgeStyle=orthogonalEdgeStyle;fontSize=12;html=1;endArrow=blockThin;endFill=1;rounded=0;strokeWidth=2;endSize=4;startSize=4;strokeColor=#34A853;dashed=0;exitX=0.568;exitY=0.001;exitDx=0;exitDy=0;exitPerimeter=0;entryX=0.605;entryY=1.004;entryDx=0;entryDy=0;entryPerimeter=0;" edge="1" parent="1" source="3a17f1ce550125da-10" target="3a17f1ce550125da-2">
          <mxGeometry width="100" relative="1" as="geometry">
            <mxPoint x="890" y="760" as="sourcePoint" />
            <mxPoint x="890" y="801" as="targetPoint" />
          </mxGeometry>
        </mxCell>
        <mxCell id="bVvk8zOgvU0S2B1iUloB-25" value="" style="edgeStyle=orthogonalEdgeStyle;fontSize=12;html=1;endArrow=blockThin;endFill=1;rounded=0;strokeWidth=2;endSize=4;startSize=4;strokeColor=#34A853;dashed=0;exitX=0.568;exitY=0.001;exitDx=0;exitDy=0;exitPerimeter=0;entryX=0.605;entryY=1.004;entryDx=0;entryDy=0;entryPerimeter=0;" edge="1" parent="1">
          <mxGeometry width="100" relative="1" as="geometry">
            <mxPoint x="908.44" y="774" as="sourcePoint" />
            <mxPoint x="908.44" y="735" as="targetPoint" />
          </mxGeometry>
        </mxCell>
        <mxCell id="bVvk8zOgvU0S2B1iUloB-26" value="" style="edgeStyle=orthogonalEdgeStyle;fontSize=12;html=1;endArrow=blockThin;endFill=1;rounded=0;strokeWidth=2;endSize=4;startSize=4;strokeColor=#34A853;dashed=0;exitX=0.568;exitY=0.001;exitDx=0;exitDy=0;exitPerimeter=0;entryX=0.605;entryY=1.004;entryDx=0;entryDy=0;entryPerimeter=0;" edge="1" parent="1">
          <mxGeometry width="100" relative="1" as="geometry">
            <mxPoint x="927" y="774" as="sourcePoint" />
            <mxPoint x="927" y="735" as="targetPoint" />
          </mxGeometry>
        </mxCell>
        <mxCell id="bVvk8zOgvU0S2B1iUloB-28" value="" style="edgeStyle=orthogonalEdgeStyle;fontSize=12;html=1;endArrow=blockThin;endFill=1;rounded=0;strokeWidth=2;endSize=4;startSize=4;strokeColor=#34A853;dashed=0;entryX=0;entryY=0.5;entryDx=0;entryDy=0;" edge="1" parent="1" target="3a17f1ce550125da-6">
          <mxGeometry width="100" relative="1" as="geometry">
            <mxPoint x="957" y="692.66" as="sourcePoint" />
            <mxPoint x="1030" y="700" as="targetPoint" />
            <Array as="points">
              <mxPoint x="999" y="693" />
            </Array>
          </mxGeometry>
        </mxCell>
        <mxCell id="bVvk8zOgvU0S2B1iUloB-29" value="" style="edgeStyle=orthogonalEdgeStyle;fontSize=12;html=1;endArrow=blockThin;endFill=1;rounded=0;strokeWidth=2;endSize=4;startSize=4;strokeColor=#34A853;dashed=0;entryX=0;entryY=0.5;entryDx=0;entryDy=0;" edge="1" parent="1">
          <mxGeometry width="100" relative="1" as="geometry">
            <mxPoint x="959" y="591.66" as="sourcePoint" />
            <mxPoint x="1039" y="591" as="targetPoint" />
            <Array as="points">
              <mxPoint x="1001" y="592" />
            </Array>
          </mxGeometry>
        </mxCell>
        <mxCell id="bVvk8zOgvU0S2B1iUloB-30" value="" style="edgeStyle=orthogonalEdgeStyle;fontSize=12;html=1;endArrow=blockThin;endFill=1;rounded=0;strokeWidth=2;endSize=4;startSize=4;strokeColor=#34A853;dashed=0;entryX=0;entryY=0.5;entryDx=0;entryDy=0;" edge="1" parent="1">
          <mxGeometry width="100" relative="1" as="geometry">
            <mxPoint x="957" y="492.65999999999997" as="sourcePoint" />
            <mxPoint x="1037" y="492" as="targetPoint" />
            <Array as="points">
              <mxPoint x="999" y="493" />
            </Array>
          </mxGeometry>
        </mxCell>
        <mxCell id="bVvk8zOgvU0S2B1iUloB-31" value="" style="edgeStyle=orthogonalEdgeStyle;fontSize=12;html=1;endArrow=blockThin;endFill=1;rounded=0;strokeWidth=2;endSize=4;startSize=4;strokeColor=#EA4335;dashed=0;entryX=1;entryY=0.5;entryDx=0;entryDy=0;exitX=0;exitY=0.5;exitDx=0;exitDy=0;" edge="1" parent="1" source="3a17f1ce550125da-11" target="3a17f1ce550125da-10">
          <mxGeometry width="100" relative="1" as="geometry">
            <mxPoint x="1170" y="910" as="sourcePoint" />
            <mxPoint x="1270" y="910" as="targetPoint" />
          </mxGeometry>
        </mxCell>
        <mxCell id="bVvk8zOgvU0S2B1iUloB-32" value="&amp;nbsp;Other User" style="whiteSpace=wrap;html=1;shadow=1;fontSize=18;fillColor=#d0cee2;strokeColor=#56517e;" vertex="1" parent="1">
          <mxGeometry x="1350" y="465" width="113" height="250" as="geometry" />
        </mxCell>
        <mxCell id="bVvk8zOgvU0S2B1iUloB-33" value="" style="image;aspect=fixed;html=1;points=[];align=center;fontSize=12;image=img/lib/azure2/other/Ceres.svg;imageBackground=#66FF66;" vertex="1" parent="1">
          <mxGeometry x="1381.69" y="496.5" width="49.62" height="57" as="geometry" />
        </mxCell>
        <mxCell id="bVvk8zOgvU0S2B1iUloB-35" value="" style="edgeStyle=orthogonalEdgeStyle;fontSize=12;html=1;endArrow=blockThin;endFill=1;rounded=0;strokeWidth=2;endSize=4;startSize=4;strokeColor=#EA4335;dashed=0;entryX=1;entryY=0.5;entryDx=0;entryDy=0;exitX=-0.014;exitY=0.908;exitDx=0;exitDy=0;exitPerimeter=0;" edge="1" parent="1" source="bVvk8zOgvU0S2B1iUloB-32" target="3a17f1ce550125da-6">
          <mxGeometry width="100" relative="1" as="geometry">
            <mxPoint x="1300" y="774" as="sourcePoint" />
            <mxPoint x="1400" y="774" as="targetPoint" />
          </mxGeometry>
        </mxCell>
        <mxCell id="bVvk8zOgvU0S2B1iUloB-36" value="" style="edgeStyle=orthogonalEdgeStyle;fontSize=12;html=1;endArrow=blockThin;endFill=1;rounded=0;strokeWidth=2;endSize=4;startSize=4;strokeColor=#EA4335;dashed=0;entryX=1;entryY=0.5;entryDx=0;entryDy=0;exitX=-0.014;exitY=0.908;exitDx=0;exitDy=0;exitPerimeter=0;" edge="1" parent="1">
          <mxGeometry width="100" relative="1" as="geometry">
            <mxPoint x="1348" y="591" as="sourcePoint" />
            <mxPoint x="1250" y="591" as="targetPoint" />
          </mxGeometry>
        </mxCell>
        <mxCell id="bVvk8zOgvU0S2B1iUloB-37" value="" style="edgeStyle=orthogonalEdgeStyle;fontSize=12;html=1;endArrow=blockThin;endFill=1;rounded=0;strokeWidth=2;endSize=4;startSize=4;strokeColor=#EA4335;dashed=0;entryX=1;entryY=0.5;entryDx=0;entryDy=0;exitX=-0.014;exitY=0.908;exitDx=0;exitDy=0;exitPerimeter=0;" edge="1" parent="1">
          <mxGeometry width="100" relative="1" as="geometry">
            <mxPoint x="1348" y="491" as="sourcePoint" />
            <mxPoint x="1250" y="491" as="targetPoint" />
          </mxGeometry>
        </mxCell>
        <mxCell id="bVvk8zOgvU0S2B1iUloB-38" value="&lt;font style=&quot;font-size: 21px;&quot;&gt;Interface&lt;/font&gt;" style="text;html=1;strokeColor=none;fillColor=none;align=center;verticalAlign=middle;whiteSpace=wrap;rounded=0;" vertex="1" parent="1">
          <mxGeometry x="700" y="630" width="60" height="30" as="geometry" />
        </mxCell>
      </root>
    </mxGraphModel>
  </diagram>
</mxfile>
